<svg xmlns="http://www.w3.org/2000/svg" viewBox="0 0 1200 630" width="1200" height="630" preserveAspectRatio="xMidYMid slice">
  <defs>
    <linearGradient id="bg" x1="0%" y1="0%" x2="100%" y2="100%">
      <stop offset="0%" stop-color="#050a14"/>
      <stop offset="100%" stop-color="#07101f"/>
    </linearGradient>
    <linearGradient id="gold" x1="0%" y1="0%" x2="100%" y2="100%">
      <stop offset="0%" stop-color="#c9a961"/>
      <stop offset="50%" stop-color="#e6c98b"/>
      <stop offset="100%" stop-color="#d4b876"/>
    </linearGradient>
    <radialGradient id="glow" cx="50%" cy="50%" r="60%">
      <stop offset="0%" stop-color="#c9a961" stop-opacity="0.18"/>
      <stop offset="50%" stop-color="#c9a961" stop-opacity="0.06"/>
      <stop offset="100%" stop-color="#c9a961" stop-opacity="0"/>
    </radialGradient>
  </defs>

  <rect width="1200" height="630" fill="url(#bg)"/>
  <rect width="1200" height="630" fill="url(#glow)"/>

  <g opacity="0.55">
    <circle cx="120" cy="80" r="1.2" fill="#a8b3c4"/>
    <circle cx="280" cy="50" r="0.8" fill="#a8b3c4"/>
    <circle cx="450" cy="120" r="1.4" fill="#a8b3c4"/>
    <circle cx="640" cy="60" r="0.9" fill="#a8b3c4"/>
    <circle cx="820" cy="100" r="1.1" fill="#a8b3c4"/>
    <circle cx="980" cy="55" r="1.3" fill="#a8b3c4"/>
    <circle cx="1100" cy="130" r="0.7" fill="#a8b3c4"/>
    <circle cx="80" cy="320" r="1.0" fill="#a8b3c4"/>
    <circle cx="1140" cy="280" r="1.5" fill="#a8b3c4"/>
    <circle cx="60" cy="540" r="0.9" fill="#a8b3c4"/>
    <circle cx="240" cy="580" r="1.2" fill="#a8b3c4"/>
    <circle cx="420" cy="540" r="0.8" fill="#a8b3c4"/>
    <circle cx="700" cy="585" r="1.1" fill="#a8b3c4"/>
    <circle cx="900" cy="530" r="1.4" fill="#a8b3c4"/>
    <circle cx="1080" cy="560" r="0.9" fill="#a8b3c4"/>
  </g>

  <g transform="translate(900, 315)" opacity="0.92">
    <g stroke="url(#gold)" stroke-width="1.5" fill="none" opacity="0.85">
      <polygon points="0,-110 95,-55 95,55 0,110 -95,55 -95,-55"/>
      <polygon points="0,-110 0,110 -95,55 -95,-55"/>
      <polygon points="0,-110 0,110 95,55 95,-55"/>
      <line x1="-95" y1="-55" x2="95" y2="-55"/>
      <line x1="-95" y1="55" x2="95" y2="55"/>
      <line x1="-95" y1="-55" x2="95" y2="55"/>
      <line x1="95" y1="-55" x2="-95" y2="55"/>
    </g>
    <circle cx="180" cy="-80" r="6" fill="url(#gold)"/>
    <circle cx="-185" cy="40" r="5" fill="#5b8cc7"/>
    <circle cx="60" cy="180" r="5" fill="url(#gold)"/>
    <circle cx="-100" cy="-150" r="4" fill="#a8b3c4"/>
    <circle cx="200" cy="120" r="5" fill="#5b8cc7"/>
  </g>

  <g transform="translate(80, 130)">
    <rect x="0" y="0" width="36" height="36" rx="4" transform="rotate(45 18 18)" fill="url(#gold)"/>
  </g>

  <text x="160" y="160" font-family="Georgia, serif" font-size="42" font-weight="500" fill="#f5f5f5" letter-spacing="6">OKO</text>

  <text x="80" y="340" font-family="Georgia, serif" font-size="92" font-weight="500" fill="#f5f5f5">Operate AI.</text>
  <text x="80" y="430" font-family="Georgia, serif" font-size="92" font-weight="500" fill="url(#gold)">Don't just use it.</text>

  <text x="80" y="510" font-family="-apple-system, sans-serif" font-size="26" font-weight="400" fill="#a8b3c4">ATLAS · Powered by Thunderline</text>

  <text x="80" y="580" font-family="-apple-system, sans-serif" font-size="16" font-weight="600" fill="#c9a961" letter-spacing="3">A GOVERNED OPERATING SUBSTRATE FOR AI IN COMMERCE</text>
</svg>
